<svg width="100" height="100" viewBox="0 0 100 100" fill="none" xmlns="http://www.w3.org/2000/svg">
<rect width="100" height="100" rx="50" fill="#EE832B"/>
<path d="M38.75 41.25C33.9575 41.25 30 45.21 30 50C30 52.1875 30.5925 54.0825 31.7275 55.5275C32.5575 56.585 33.785 57.16 34.9775 57.7775C35.0425 59.775 34.9275 60.3225 33.3275 63.5275C32.485 65.2125 34.375 66.9475 35.9825 65.965C44.495 60.725 47.5 54.5825 47.5 50C47.5 45.21 43.5425 41.25 38.75 41.25ZM61.25 41.25C56.4575 41.25 52.5 45.21 52.5 50C52.5 52.1875 53.0925 54.0825 54.2275 55.5275C55.0575 56.585 56.285 57.16 57.4775 57.7775C57.5425 59.775 57.4275 60.3225 55.8275 63.5275C54.985 65.2125 56.875 66.9475 58.4825 65.965C66.995 60.725 70 54.5825 70 50C70 45.21 66.0425 41.25 61.25 41.25Z" fill="#EDE6D6"/>
</svg>
