<svg width="24" height="24" viewBox="0 0 24 24" fill="none" xmlns="http://www.w3.org/2000/svg">
<path d="M15.5644 1.30121C15.3489 1.41699 15.0921 1.65558 14.8952 1.97869C14.7733 2.24325 14.3568 3.02869 14.7227 3.26775C15.1714 3.33338 15.5817 2.85689 15.7892 2.52342C15.9861 2.20027 16.0804 1.86263 16.0845 1.61808C16.0963 1.18861 15.8454 1.15261 15.5644 1.30121ZM13.9199 3.60075C13.119 4.65296 12.4686 5.67169 11.7965 6.63056C11.2544 6.2378 10.7059 5.85406 10.1511 5.4795C9.1657 5.00133 9.08784 5.31216 8.83589 5.48316C9.65133 6.11386 10.4646 6.74663 11.2676 7.38516L10.7823 8.07774C9.76181 7.26539 8.72109 6.46008 7.67775 5.6543C7.46573 5.70064 7.25556 5.75505 7.0477 5.81742C7.30947 6.27841 7.56765 6.74142 7.82222 7.20642C8.56631 7.78814 9.35526 8.3797 10.1448 8.98735L9.65536 9.68569C9.36706 9.46315 9.07824 9.24127 8.78892 9.02006C9.19336 9.80081 9.58589 10.5885 9.96347 11.383C10.9071 12.0014 12.055 12.867 12.8885 13.4661C13.072 13.431 13.255 13.3943 13.4376 13.3566L12.574 14.3803C12.1763 14.4508 11.7775 14.5145 11.3777 14.5716C11.4761 14.8112 11.5722 15.0516 11.6671 15.2923C13.8417 15.0124 15.9911 14.5633 18.0957 13.9489C18.3338 13.5961 18.3865 13.2663 18.0327 12.9851C16.6757 13.4369 15.2907 13.8214 13.8732 14.1261L14.7829 13.0505C15.2251 12.9412 15.6654 12.8239 16.1034 12.6988C15.9172 12.516 15.7294 12.3348 15.54 12.1553L16.0862 11.5094C16.4031 11.8096 16.7155 12.1145 17.0234 12.4239C17.3124 12.334 17.6005 12.2408 17.8875 12.1444C17.8342 11.9061 17.7705 11.6701 17.6969 11.4372C17.4045 11.1723 17.1101 10.9097 16.8137 10.6493L19.992 6.89133C19.7026 6.80241 19.4736 6.59663 19.3546 6.34181L16.755 9.42366C15.8728 8.04061 14.6052 6.92827 13.1024 6.23747L14.5927 4.11094C14.3017 4.04672 14.0517 3.83827 13.9199 3.60075ZM21.2765 4.22264C21.0468 4.30688 20.7588 4.50661 20.5182 4.79874C20.3602 5.04324 19.837 5.7623 20.1653 6.05049C20.6002 6.17874 21.0738 5.76516 21.3263 5.46436C21.5669 5.17228 21.7078 4.85138 21.7465 4.60983C21.7852 4.36828 21.7305 4.25494 21.6791 4.21256C21.5512 4.13897 21.3905 4.18153 21.2764 4.22264H21.2765ZM6.2519 6.13153C5.82056 5.94666 5.58492 6.0811 5.51756 6.48919C8.37881 11.4893 10.5142 16.7663 12.2903 22.1732C12.8121 22.4043 12.7759 22.0889 12.9031 21.9594C11.5964 16.4506 9.10486 11.1428 6.2519 6.13153ZM12.961 6.43922C14.2625 7.40766 15.5149 8.41608 16.7268 9.45717L16.1829 10.102C14.9888 9.07599 13.7563 8.08308 12.4768 7.13016L12.961 6.43922ZM4.79723 6.92892C4.08234 6.7306 4.21129 7.20099 4.07606 7.46855C7.65618 12.7108 8.94145 17.6328 10.8051 22.5608C11.1957 22.8685 11.3693 22.6716 11.4791 22.4072C9.71915 17.0541 7.6102 11.849 4.79723 6.92892ZM11.9277 7.91349C13.1522 8.90072 14.3453 9.90492 15.4752 10.941L14.9304 11.5868C13.8243 10.5716 12.6513 9.58247 11.4421 8.60639L11.9277 7.91349ZM3.44287 8.03827C3.00515 7.91658 2.895 8.18794 2.90662 8.60466C5.49801 13.2019 7.5877 17.6861 9.12154 22.7085C9.59536 22.9889 9.79678 22.8879 9.9509 22.6868C8.11411 17.8005 6.84895 13.0616 3.44287 8.03827ZM2.34572 9.32452C1.88138 10.0302 1.52443 10.8009 1.28653 11.6114L3.1619 10.8126C2.8941 10.3143 2.62203 9.81821 2.34572 9.32452ZM10.812 9.5056C12.0176 10.4526 13.191 11.4409 14.1662 12.4927L13.617 13.1438C12.6881 12.1342 11.5312 11.1586 10.3215 10.2054L10.812 9.5056ZM3.55908 11.5605L1.05539 12.6269C0.781122 12.8046 0.714466 13.0924 0.954606 13.5429L3.97865 12.3698C3.84025 12.0992 3.70039 11.8295 3.55908 11.5605ZM10.6587 12.893C10.7882 13.1838 10.9155 13.4756 11.0406 13.7683C11.27 13.7372 11.4992 13.7039 11.728 13.6683C11.383 13.4171 11.0184 13.1509 10.6587 12.893ZM4.36059 13.1266L2.46801 13.8608C3.24693 13.9487 4.02855 14.0109 4.81157 14.0472C4.66335 13.7393 4.51299 13.4324 4.36059 13.1266ZM0.954091 14.5116C0.869669 14.7621 0.681231 14.9859 1.03533 15.3119C2.53318 15.4967 4.03971 15.6025 5.54868 15.629C5.43981 15.3875 5.32954 15.1466 5.21789 14.9064C3.82992 14.86 2.4097 14.7316 0.954091 14.5116ZM18.0591 14.8379C16.0658 15.4052 14.0341 15.8277 11.9798 16.102C12.0672 16.3345 12.153 16.5676 12.2371 16.8013C14.0999 16.5724 15.9971 16.2099 17.9389 15.6798C18.2459 15.452 18.4246 15.1975 18.0591 14.8379ZM1.21148 16.183C1.08211 16.3517 0.842903 16.4874 1.40142 16.8172C2.98443 16.9798 4.58034 17.0849 6.1957 17.1106C6.10649 16.8994 6.01616 16.6886 5.92472 16.4783C4.34945 16.4647 2.77612 16.3662 1.21148 16.183ZM17.7013 16.6158C16.8146 16.8469 15.9205 17.0482 15.0203 17.2194L17.2418 18.0548C17.6957 18.2023 18.6756 18.615 18.6202 19.0384C18.5096 19.6913 17.3303 19.5607 17.0016 20.0524C16.9111 20.2027 16.869 20.4057 16.8993 20.5926C17.7873 22.4778 20.4276 22.7418 22.278 22.7904C23.0087 22.8354 22.7522 22.101 22.226 22.0865C21.0682 21.9079 18.2372 21.795 17.9946 20.7204C17.879 20.0165 19.524 19.9341 19.5213 19.2207C19.5176 18.2727 18.2888 17.5058 17.4771 17.2432C17.5599 17.037 17.6348 16.8278 17.7013 16.6158ZM13.3668 17.4991C13.0859 17.5407 12.8045 17.5794 12.5227 17.6152C12.6186 17.896 12.7118 18.1775 12.8024 18.4596L15.8739 19.7985C16.2511 19.6804 16.821 19.707 16.6883 18.7482L13.3668 17.4991ZM1.76025 17.7007C1.98551 18.1774 2.25431 18.6322 2.56322 19.0595L2.54212 17.7705C2.281 17.7488 2.02037 17.7256 1.76025 17.7007ZM3.38704 17.8347L3.42375 20.074C3.55743 20.8325 3.9434 20.8275 4.32656 20.8659L4.33059 17.8918C4.01591 17.8754 3.70136 17.8563 3.387 17.8347H3.38704ZM5.17434 17.9281L5.16956 21.4316C5.35261 21.8822 5.61783 22.1383 6.08409 21.8983L6.01472 17.9513C5.73453 17.9459 5.4544 17.9382 5.17434 17.9281ZM6.87328 18.7839L6.93351 22.2167C7.34117 22.3452 7.75791 22.4428 8.1802 22.5087C7.78579 21.253 7.34991 20.0107 6.87328 18.7839ZM13.13 19.5228C13.3275 20.1915 13.5089 20.8648 13.6739 21.5423C14.2317 21.233 14.7533 20.8626 15.2291 20.4379L13.13 19.5228Z" fill="#EE832B"/>
</svg>
