<svg width="24" height="24" viewBox="0 0 24 24" fill="none" xmlns="http://www.w3.org/2000/svg">
<path d="M2.89078 5.6156L2.29593 8.81716C2.03953 10.2047 2.24812 11.6344 2.89078 12.8859H5.28281V5.6156H2.89078ZM6.10781 5.6156V11.0344H6.24374C6.53437 11.0344 6.76874 10.7953 6.76874 10.5047V5.6156H6.10781ZM7.59843 5.6156V10.5047C7.59843 11.25 6.99374 11.8547 6.24374 11.8547H6.10781V15.6844H6.80624V12.8859H7.72499C7.72499 12.8859 8.08124 12.1687 8.36249 11.5875C8.58281 11.1562 9.02343 10.8797 9.51093 10.8797H13.2703C13.9734 10.8797 14.5453 11.4469 14.5453 12.15V16.439H1.2164L1.71187 19.65H21.3328L21.825 16.6922L20.8359 5.6156H7.59843ZM22.1344 6.71248C21.9047 6.73123 21.7359 6.93279 21.7594 7.15779L21.9609 9.37966C21.9797 9.60466 22.1812 9.77341 22.4062 9.75466C22.6359 9.73591 22.8 9.52966 22.7812 9.30466L22.5844 7.08748C22.5656 6.87654 22.3875 6.71248 22.1766 6.71248H22.1344ZM18.0656 6.71716C19.0828 6.71716 19.9031 7.53748 19.9031 8.55466C19.9031 9.57185 19.0828 10.3922 18.0656 10.3922C17.0484 10.3922 16.2281 9.57185 16.2281 8.55466C16.2281 7.53748 17.0484 6.71716 18.0656 6.71716ZM18.0656 7.53748C17.5078 7.53748 17.0484 7.99685 17.0484 8.55466C17.0484 9.11716 17.5078 9.57185 18.0656 9.57185C18.6234 9.57185 19.0828 9.11716 19.0828 8.55466C19.0828 7.99685 18.6234 7.53748 18.0656 7.53748ZM18.0656 11.7515C19.3125 11.7515 20.325 12.7687 20.325 14.0109C20.325 15.2578 19.3125 16.2703 18.0656 16.2703C16.8187 16.2703 15.8062 15.2578 15.8062 14.0109C15.8062 12.7687 16.8187 11.7515 18.0656 11.7515ZM18.0656 12.5765C17.2734 12.5765 16.6312 13.2187 16.6312 14.0109C16.6312 14.8031 17.2734 15.4406 18.0656 15.4406C18.8578 15.4406 19.4953 14.8031 19.4953 14.0109C19.4953 13.2187 18.8578 12.5765 18.0656 12.5765ZM4.34578 13.4906V14.3156H5.28749V13.4906H4.34578ZM1.71187 20.5734V21.8156H21.3234V20.5734H1.71187Z" fill="#EE832B"/>
</svg>
