<svg width="24" height="24" viewBox="0 0 24 24" fill="none" xmlns="http://www.w3.org/2000/svg">
<path d="M7.21407 2.41406C5.59219 2.41406 4.12641 2.62266 3.09891 2.94375C2.58516 3.10453 2.1825 3.29578 1.93829 3.47672C1.6936 3.65719 1.63782 3.79078 1.63782 3.86719C1.63782 3.94359 1.6936 4.07719 1.93829 4.25766C2.1825 4.43859 2.58516 4.62984 3.09891 4.79062C4.12641 5.10937 5.59219 5.32031 7.21407 5.32031C8.83594 5.32031 10.3031 5.10937 11.3297 4.79062C11.8453 4.62984 12.2484 4.43859 12.4922 4.25766C12.7359 4.07719 12.7922 3.94359 12.7922 3.86719C12.7922 3.79078 12.7359 3.65719 12.4922 3.47672C12.2484 3.29578 11.8453 3.10453 11.3297 2.94375C10.3031 2.62266 8.83594 2.41406 7.21407 2.41406ZM18.1875 3.30375C18.0703 3.30375 17.9531 3.30375 17.8359 3.31125C16.8891 3.36516 15.8531 3.66562 14.8781 4.03453C14.2922 4.25578 13.7297 4.50234 13.2234 4.73906C13.1531 4.80937 13.0734 4.875 12.9938 4.93594C12.7547 5.10938 12.4688 5.26406 12.1359 5.4V6.23906C12.7688 5.89219 13.9219 5.29688 15.1734 4.82344C16.1063 4.47188 17.0859 4.19906 17.8828 4.15359C18.6797 4.10766 19.2375 4.27078 19.5422 4.70156C19.8234 5.1 19.7766 5.3625 19.5094 5.79844C19.2469 6.23437 18.7219 6.74531 18.1266 7.27969C17.5359 7.80938 16.8844 8.36719 16.3734 8.98594C15.8625 9.60469 15.4734 10.3078 15.5203 11.1047C15.5906 12.2672 16.5234 13.3687 17.3906 14.2641C18.2531 15.1547 19.1016 15.8063 19.1016 15.8063L19.6172 15.1406C19.6172 15.1406 18.8109 14.5172 17.9953 13.6781C17.1797 12.8344 16.4063 11.7375 16.3641 11.0531V11.0484C16.3313 10.5656 16.5797 10.0594 17.025 9.525C17.4703 8.98594 18.0938 8.44688 18.6938 7.90313C19.2938 7.36406 19.8703 6.83437 20.2359 6.23438C20.5969 5.63438 20.6906 4.86562 20.2266 4.21359C19.7672 3.56156 19.0031 3.31828 18.1875 3.30375ZM7.21407 3.49219C7.8108 3.49219 8.3831 3.5317 8.80506 3.60202C9.22701 3.67235 9.46407 3.76773 9.46407 3.86719C9.46407 3.96664 9.22701 4.06203 8.80506 4.13235C8.3831 4.20268 7.8108 4.24219 7.21407 4.24219C6.61733 4.24219 6.04503 4.20268 5.62308 4.13235C5.20112 4.06203 4.96407 3.96664 4.96407 3.86719C4.96407 3.76773 5.20112 3.67235 5.62308 3.60202C6.04503 3.5317 6.61733 3.49219 7.21407 3.49219ZM3.13594 5.68125V6.17813C5.86875 6.83438 8.57344 6.7875 11.2922 6.50156V5.68125C10.1859 5.98594 8.76563 6.16406 7.21407 6.16406C5.65782 6.16406 4.24313 5.98594 3.13594 5.68125ZM3.13594 7.04531V8.18906C6.08438 8.325 8.74688 8.02969 11.2922 7.5375V7.34531C8.61563 7.62656 5.90157 7.67344 3.13594 7.04531ZM11.2922 8.39062C8.76094 8.87344 6.08438 9.16406 3.13594 9.0375V9.91406C6.13594 9.98438 8.91094 9.79688 11.2922 9.16875V8.39062ZM11.2922 10.0453C8.85469 10.65 6.08438 10.8234 3.13594 10.7578V10.9078C6.01875 11.3016 8.79844 11.5547 11.2922 11.4141V10.0453ZM3.13594 11.7563V12.1734C5.63438 12.9703 8.42813 13.0078 11.2922 12.9656V12.2578C8.75625 12.3938 5.98594 12.15 3.13594 11.7563ZM3.13594 13.0547V14.5453C5.60626 14.7047 7.95469 14.3812 10.2703 13.8187C7.83282 13.8375 5.4 13.7391 3.13594 13.0547ZM11.2922 14.4328C8.68125 15.1219 5.99063 15.5719 3.13594 15.3937V16.1437C5.83594 16.1531 8.51719 16.0969 11.2922 15.4781V14.4328ZM21.6844 15.3234C21.4641 15.3261 21.2079 15.3881 20.9393 15.5035C20.6707 15.619 20.3983 15.7843 20.1469 15.9844C20.1438 15.9859 20.1406 15.9875 20.1375 15.9891L20.1094 16.0172C19.9579 16.1411 19.8172 16.2754 19.6922 16.4156L12.4641 23.3203L20.7281 17.8875C20.9384 17.7802 21.147 17.6449 21.3422 17.4891C21.7398 17.1722 22.0583 16.7896 22.2278 16.425C22.3974 16.0603 22.4043 15.7435 22.2469 15.5438C22.133 15.3977 21.9377 15.3212 21.6844 15.3234ZM21.2109 16.0312C21.2125 16.0312 21.2141 16.0312 21.2156 16.0312C21.3418 16.0298 21.4394 16.0672 21.4969 16.1391C21.536 16.1886 21.5553 16.2531 21.5536 16.3289C21.552 16.4047 21.5294 16.4903 21.4872 16.5808C21.4449 16.6714 21.3839 16.7651 21.3075 16.8566C21.2312 16.9481 21.141 17.0356 21.0422 17.1141C20.8435 17.2724 20.6214 17.3849 20.4246 17.4271C20.2279 17.4693 20.0724 17.4376 19.9922 17.3391C19.9524 17.29 19.9325 17.2258 19.9336 17.1501C19.9346 17.0745 19.9567 16.989 19.9985 16.8984C20.0403 16.8078 20.101 16.714 20.1772 16.6223C20.2533 16.5306 20.3434 16.4429 20.4422 16.3641C20.5676 16.2639 20.7037 16.1809 20.838 16.1227C20.9723 16.0646 21.1005 16.0332 21.2109 16.0312ZM11.2922 16.3406C8.48438 16.9406 5.79376 16.9969 3.13641 16.9875C3.13641 16.9875 3.15563 17.0297 3.31032 17.1188C3.4936 17.2219 3.81422 17.3344 4.21219 17.4234C5.00625 17.6016 6.1125 17.6953 7.21407 17.6953C8.31563 17.6953 9.42188 17.6016 10.2141 17.4234C10.6125 17.3344 10.9359 17.2219 11.1188 17.1188C11.2781 17.025 11.2922 16.9781 11.2922 16.9875V16.3406ZM2.30485 17.1328C2.15954 17.2078 2.03579 17.2781 1.93829 17.3531C1.6936 17.5313 1.63782 17.6672 1.63782 17.7422C1.63782 17.8172 1.6936 17.9531 1.93829 18.1312C2.1825 18.3141 2.58516 18.5063 3.09891 18.6656C4.12641 18.9844 5.59219 19.1953 7.21407 19.1953C8.83594 19.1953 10.3031 18.9844 11.3297 18.6656C11.8453 18.5063 12.2484 18.3141 12.4922 18.1312C12.7359 17.9531 12.7922 17.8172 12.7922 17.7422C12.7922 17.6672 12.7359 17.5313 12.4922 17.3531C12.3938 17.2781 12.2719 17.2031 12.1219 17.1328C12.0656 17.4563 11.8078 17.6953 11.5359 17.85C11.2266 18.0281 10.8469 18.15 10.3969 18.2484C9.50626 18.4453 8.3625 18.5391 7.21407 18.5391C6.06563 18.5391 4.92188 18.4453 4.02891 18.2484C3.58313 18.15 3.20016 18.0281 2.89172 17.85C2.62032 17.7 2.36344 17.4563 2.30485 17.1328Z" fill="#EE832B"/>
</svg>
