<svg width="182" height="22" viewBox="0 0 182 22" fill="none" xmlns="http://www.w3.org/2000/svg">
<path d="M0.769886 21V0.636363H5.07528V17.4503H13.8054V21H0.769886ZM23.4861 21H18.8724L25.9023 0.636363H31.4506L38.4705 21H33.8568L28.756 5.28977H28.5969L23.4861 21ZM23.1977 12.9957H34.0955V16.3565H23.1977V12.9957ZM60.7541 0.636363V21H57.0354L48.176 8.18324H48.0268V21H43.7214V0.636363H47.4999L56.2896 13.4432H56.4686V0.636363H60.7541ZM70.6212 21H66.0076L73.0374 0.636363H78.5857L85.6056 21H80.992L75.8911 5.28977H75.732L70.6212 21ZM70.3329 12.9957H81.2306V16.3565H70.3329V12.9957Z" fill="black"/>
<path d="M93.054 21.1491C92.3514 21.1491 91.7449 21.0232 91.2344 20.7713C90.724 20.5194 90.3313 20.178 90.0562 19.7472C89.7844 19.313 89.6485 18.8291 89.6485 18.2955C89.6485 17.8977 89.7281 17.5447 89.8871 17.2365C90.0462 16.9283 90.2683 16.6449 90.5533 16.3864C90.8384 16.1245 91.1698 15.8643 91.5477 15.6058L93.5214 14.3082C93.7766 14.1458 93.9638 13.9751 94.0832 13.7962C94.2025 13.6139 94.2621 13.4167 94.2621 13.2045C94.2621 13.0024 94.1809 12.8151 94.0185 12.6428C93.8561 12.4704 93.6258 12.3859 93.3275 12.3892C93.1286 12.3892 92.9563 12.4339 92.8104 12.5234C92.6646 12.6096 92.5503 12.724 92.4674 12.8665C92.3879 13.0057 92.3481 13.1615 92.3481 13.3338C92.3481 13.5459 92.4077 13.7614 92.5271 13.9801C92.6464 14.1989 92.8055 14.4309 93.0043 14.6761C93.2032 14.9181 93.4203 15.1799 93.6556 15.4616L98.483 21H96.2756L92.2486 16.5156C91.9835 16.214 91.7183 15.8991 91.4532 15.571C91.1914 15.2396 90.9726 14.8883 90.7969 14.517C90.6213 14.1425 90.5334 13.7365 90.5334 13.299C90.5334 12.8052 90.6478 12.361 90.8765 11.9666C91.1085 11.5722 91.4333 11.2607 91.8509 11.032C92.2685 10.8 92.7557 10.6839 93.3126 10.6839C93.8561 10.6839 94.3251 10.795 94.7195 11.017C95.1173 11.2358 95.4222 11.5275 95.6343 11.892C95.8497 12.2533 95.9575 12.651 95.9575 13.0852C95.9575 13.5658 95.8381 14.0017 95.5995 14.3928C95.3642 14.7805 95.0327 15.1286 94.6052 15.4368L92.5271 16.9332C92.2453 17.1387 92.0365 17.3492 91.9006 17.5646C91.7681 17.7768 91.7018 17.9806 91.7018 18.1761C91.7018 18.4181 91.7614 18.6352 91.8807 18.8274C92.0001 19.0196 92.1691 19.1721 92.3879 19.2848C92.6066 19.3942 92.8635 19.4489 93.1584 19.4489C93.5164 19.4489 93.8694 19.3677 94.2174 19.2053C94.5687 19.0395 94.8869 18.8059 95.1719 18.5043C95.4603 18.1993 95.6906 17.8381 95.863 17.4205C96.0353 17.0028 96.1215 16.5405 96.1215 16.0334H97.8765C97.8765 16.6565 97.8085 17.2183 97.6727 17.7188C97.5368 18.2159 97.3478 18.6501 97.1059 19.0213C96.8639 19.3892 96.5872 19.6908 96.2756 19.9261C96.1762 19.9891 96.0801 20.0488 95.9873 20.1051C95.8945 20.1615 95.7984 20.2211 95.6989 20.2841C95.3211 20.589 94.8985 20.8094 94.4312 20.9453C93.9672 21.0812 93.5081 21.1491 93.054 21.1491Z" fill="#333333"/>
<path d="M105.2 21H100.587L107.616 0.636363H113.165L120.185 21H115.571L110.47 5.28977H110.311L105.2 21ZM104.912 12.9957H115.81V16.3565H104.912V12.9957ZM125.436 21V0.636363H133.47C135.007 0.636363 136.32 0.911458 137.407 1.46165C138.501 2.00521 139.333 2.77746 139.903 3.77841C140.48 4.77273 140.768 5.94271 140.768 7.28835C140.768 8.64062 140.476 9.80398 139.893 10.7784C139.31 11.7462 138.464 12.4886 137.357 13.0057C136.257 13.5227 134.925 13.7812 133.36 13.7812H127.981V10.321H132.664C133.486 10.321 134.169 10.2083 134.713 9.98295C135.256 9.75758 135.66 9.41951 135.926 8.96875C136.197 8.51799 136.333 7.95786 136.333 7.28835C136.333 6.61222 136.197 6.04214 135.926 5.57812C135.66 5.11411 135.253 4.76278 134.703 4.52415C134.159 4.27888 133.473 4.15625 132.644 4.15625H129.741V21H125.436ZM136.433 11.733L141.494 21H136.741L131.789 11.733H136.433ZM145.835 4.18608V0.636363H162.559V4.18608H156.325V21H152.069V4.18608H145.835ZM168.114 21V0.636363H181.835V4.18608H172.419V9.03835H181.129V12.5881H172.419V17.4503H181.875V21H168.114Z" fill="#A55E3F"/>
</svg>
