<svg width="70" height="76" viewBox="0 0 70 76" fill="none" xmlns="http://www.w3.org/2000/svg">
<g filter="url(#filter0_d_201_216)">
<path d="M43.6031 18H27.1206L23 58H47.5274L43.6031 18Z" fill="#EE832B" stroke="#EE832B" stroke-width="3"/>
<path d="M45.0574 53.6145H24.8433C20.6633 53.6145 17.4149 49.9748 17.8884 45.8216L19.9125 28.0659C20.3156 24.5296 23.3082 21.8588 26.8675 21.8588H42.8084C46.3343 21.8588 49.3098 24.4812 49.7529 27.9791L52.0019 45.7349C52.5316 49.9165 49.2725 53.6145 45.0574 53.6145Z" fill="#EDE6D6" stroke="#EE832B" stroke-width="3"/>
<path d="M19.0511 43.3185C23.4876 42.1721 27.1931 41.0787 30.7983 39.8029M50.75 35.3464L49.8177 31.8314C49.116 32.1818 47.5006 32.5205 46.8343 32.8482M50.75 35.3464C38.7272 40.8805 30.8842 44.0879 18.1188 46.946L17 51.6315C22.4029 50.5284 26.8088 49.4386 30.7983 48.1819M50.75 35.3464V39.2375C48.9858 40.2146 47.3212 41.1105 45.7155 41.9379M30.7983 39.8029C32.477 39.2089 34.134 38.5753 35.8329 37.8784M30.7983 39.8029C28.4643 38.5151 26.6385 37.6336 24.645 36.8331M35.8329 37.8784C30.1951 34.6216 26.745 33.2948 19.9834 31.8314V28.3551M35.8329 37.8784C37.6826 37.1196 39.582 36.2859 41.6133 35.3464M19.9834 28.3551C26.3855 28.6753 31.5036 30.6566 41.6133 35.3464M19.9834 28.3551L20.9157 24.7276C25.8248 25.2071 29.6835 25.8315 33.4088 26.9209M41.6133 35.3464C43.2532 34.588 44.9791 33.7606 46.8343 32.8482M46.8343 32.8482C45.3173 32.007 43.8988 31.2559 42.5456 30.5834M33.4088 26.9209C34.9825 25.5929 36.795 24.6128 41.6133 22.4604H48.2188M33.4088 26.9209C35.208 27.447 36.9761 28.0816 38.8163 28.8607M48.2188 22.4604C46.2853 24.625 44.1294 26.0041 38.8163 28.8607M48.2188 22.4604L48.8854 28.3551C46.802 29.0491 45.3491 29.566 42.5456 30.5834M38.8163 28.8607C40.019 29.3698 41.2524 29.9407 42.5456 30.5834M45.7155 41.9379L51.5938 43.3185V48.1819L41.6133 43.9585M45.7155 41.9379C44.312 42.661 42.9536 43.3317 41.6133 43.9585M41.6133 43.9585C39.6761 44.8643 37.7766 45.6782 35.8329 46.4257M35.8329 46.4257C47.6063 51.8709 51.1068 52.7312 51.5938 52.3614L41.6133 53.5495C37.6575 50.8319 35.2096 49.9737 30.7983 48.1819M35.8329 46.4257C34.2019 47.0529 32.5398 47.6333 30.7983 48.1819M24.645 36.8331C23.0156 36.1787 21.274 35.5784 19.0511 34.8543V39.2375L24.645 36.8331Z" stroke="#EE832B"/>
</g>
<defs>
<filter id="filter0_d_201_216" x="0.331512" y="0.5" width="69.2272" height="75" filterUnits="userSpaceOnUse" color-interpolation-filters="sRGB">
<feFlood flood-opacity="0" result="BackgroundImageFix"/>
<feColorMatrix in="SourceAlpha" type="matrix" values="0 0 0 0 0 0 0 0 0 0 0 0 0 0 0 0 0 0 127 0" result="hardAlpha"/>
<feOffset/>
<feGaussianBlur stdDeviation="8"/>
<feComposite in2="hardAlpha" operator="out"/>
<feColorMatrix type="matrix" values="0 0 0 0 0.647059 0 0 0 0 0.368627 0 0 0 0 0.247059 0 0 0 0.2 0"/>
<feBlend mode="normal" in2="BackgroundImageFix" result="effect1_dropShadow_201_216"/>
<feBlend mode="normal" in="SourceGraphic" in2="effect1_dropShadow_201_216" result="shape"/>
</filter>
</defs>
</svg>
